<?xml version="1.0" encoding="iso-8859-1"?>
<!-- Generator: Adobe Illustrator 19.0.0, SVG Export Plug-In . SVG Version: 6.00 Build 0)  -->
<svg version="1.1" id="Layer_1" xmlns="http://www.w3.org/2000/svg" xmlns:xlink="http://www.w3.org/1999/xlink" x="0px" y="0px"
	 viewBox="0 0 512.002 512.002" style="enable-background:new 0 0 512.002 512.002;" xml:space="preserve">
<g>
	<path style="fill:#ECF0F1;" d="M264.824,511.999c38.17-0.742,185.344-14.627,185.379-185.379c0-6.073,0.327-74.072,0-79.775
		c-7.027-124.495-89.132-161.562-144.155-172.376c0,0-22.36-3.849-50.194-3.849c-27.833,0-50.185,3.849-50.185,3.849
		C150.639,85.282,64.014,122.164,61.79,246.845c-0.097,5.835,0,73.702,0,79.775c0,170.867,147.659,184.629,185.388,185.379H264.824z
		"/>
	<path style="fill:#BDC3C7;" d="M442.917,386.712L442.917,386.712c-24.444,6.983-49.752,10.531-75.176,10.531H139.619
		c-22.378,0-44.668-2.745-66.375-8.174l-3.761-0.945c30.676,112.79,145.117,123.233,177.69,123.878h17.646
		C297.915,511.357,412.868,500.755,442.917,386.712"/>
	<g>
		<path style="fill:#2C2F38;" d="M248.888,70.707c-7.38,122.306,3.125,246.025,95.391,282.394c0,0,53.504,19.588,104.536,0.477
			c0.865-8.545,1.386-17.47,1.395-26.959c0-2.277,0.044-13.259,0.079-26.403c0.053-17.523,0.097-38.885,0.009-48.552
			c-0.018-2.419-0.053-4.105-0.088-4.82c-0.221-3.884-0.512-7.689-0.874-11.414c-0.733-7.442-1.739-14.557-3.001-21.345
			c-0.636-3.39-1.324-6.709-2.083-9.949c-6.047-25.9-15.996-46.813-28.239-63.691c-1.527-2.11-3.098-4.158-4.696-6.144
			c-22.387-27.807-51.2-43.635-77.886-52.612c-1.898-0.636-3.796-1.245-5.676-1.818c-3.761-1.148-7.468-2.154-11.096-3.054
			c-3.628-0.892-7.168-1.668-10.611-2.348c0,0-2.18-0.38-6.029-0.892c-3.858-0.521-9.375-1.174-16.049-1.739
			c-3.999-0.335-8.422-0.644-13.144-0.865c-4.723-0.221-9.746-0.353-14.963-0.353C253.487,70.619,251.174,70.654,248.888,70.707"/>
		<path style="fill:#2C2F38;" d="M282.482,414.896c0,9.754-11.855,17.655-26.483,17.655c-14.627,0-26.483-7.901-26.483-17.655
			s11.855-17.655,26.483-17.655C270.627,397.241,282.482,405.141,282.482,414.896"/>
		<path style="fill:#2C2F38;" d="M255.999,485.525c-23.834,0-45.55-6.206-66.401-18.962c-4.158-2.551-5.473-7.98-2.922-12.138
			c2.551-4.158,7.98-5.473,12.138-2.922c17.999,11.017,36.705,16.366,57.185,16.366c20.489,0,39.195-5.349,57.194-16.358
			c4.131-2.542,9.578-1.227,12.129,2.931c2.551,4.158,1.236,9.587-2.931,12.138C301.558,479.328,279.834,485.525,255.999,485.525"/>
	</g>
	<g>
		<path style="fill:#F9EBB0;" d="M430.864,165.855C465.345,83.856,406.067,0.003,406.067,0.003
			c-7.654,39.115-24.647,71.662-40.96,95.673C390.46,109.853,414.71,131.843,430.864,165.855"/>
		<path style="fill:#F9EBB0;" d="M146.81,95.559C130.523,71.556,113.574,39.053,105.929,0c0,0-59.118,83.633-24.929,165.535
			C97.199,131.61,121.466,109.692,146.81,95.559"/>
	</g>
	<g>
		<path style="fill:#BDC3C7;" d="M61.792,246.842c0.556-31.47,6.506-57.326,15.96-78.601c-17.002,1.359-34.666,5.623-50.088,15.139
			C5.252,197.205-5.977,224.853,3.221,249.517c6.347,17.011,21.795,30.252,58.209,15.175c0.106-0.044,0.212-0.088,0.318-0.132
			C61.748,255.484,61.766,248.528,61.792,246.842"/>
		<path style="fill:#BDC3C7;" d="M484.338,183.38c-16.093-9.931-34.595-14.089-52.259-15.254
			c9.746,21.31,16.349,47.201,18.132,78.724c0.088,1.651,0.124,8.633,0.132,17.752c0.079,0.026,0.15,0.053,0.23,0.088
			c36.414,15.078,51.862,1.836,58.209-15.175C517.98,224.852,506.742,197.204,484.338,183.38"/>
	</g>
	<path style="fill:#2C2F38;" d="M203.034,203.034c0,14.627-11.855,26.483-26.483,26.483c-14.627,0-26.483-11.855-26.483-26.483
		s11.855-26.483,26.483-26.483C191.178,176.551,203.034,188.406,203.034,203.034"/>
	<path style="fill:#ECF0F1;" d="M361.93,203.034c0,14.627-11.855,26.483-26.483,26.483c-14.627,0-26.483-11.855-26.483-26.483
		s11.855-26.483,26.483-26.483C350.075,176.551,361.93,188.406,361.93,203.034"/>
</g>
<g>
</g>
<g>
</g>
<g>
</g>
<g>
</g>
<g>
</g>
<g>
</g>
<g>
</g>
<g>
</g>
<g>
</g>
<g>
</g>
<g>
</g>
<g>
</g>
<g>
</g>
<g>
</g>
<g>
</g>
</svg>
